Coordinates
version=1
nRows=12
nColumns=38
inDegrees=yes

Units are S.I. units (second, meters, Newtons, ...)
Angles are in degrees.

endheader
time	pelvis_tilt	pelvis_list	pelvis_rotation	pelvis_tx	pelvis_ty	pelvis_tz	hip_flexion_r	hip_adduction_r	hip_rotation_r	knee_angle_r	ankle_angle_r	subtalar_angle_r	mtp_angle_r	hip_flexion_l	hip_adduction_l	hip_rotation_l	knee_angle_l	ankle_angle_l	subtalar_angle_l	mtp_angle_l	lumbar_extension	lumbar_bending	lumbar_rotation	arm_flex_r	arm_add_r	arm_rot_r	elbow_flex_r	pro_sup_r	wrist_flex_r	wrist_dev_r	arm_flex_l	arm_add_l	arm_rot_l	elbow_flex_l	pro_sup_l	wrist_flex_l	wrist_dev_l
      1.95000000	     -2.47716381	      3.56119985	     -0.57705586	      0.27155354	      0.91863623	     -0.25525665	     28.55207406	     -1.95406607	     -2.26121207	    -52.24726424	     -2.81213074	    -12.45726787	     15.61837811	      3.91850872	      8.39128124	      5.28772331	    -18.33150317	     10.36409759	     -0.35252748	      3.20653315	     -4.49389451	     -2.62651661	     -4.37464136	     -3.17357407	    -17.13408382	     14.30122297	     19.52654345	     86.51662706	      0.00000000	      0.00000000	      4.31728609	    -17.40585464	     25.48521121	     24.99113874	     86.51662706	      0.00000000	      0.00000000
      1.96000000	     -2.35417003	      3.47748078	     -0.20317984	      0.28444383	      0.91857297	     -0.25538664	     28.88559229	     -2.05036575	     -2.90476432	    -49.01077252	     -2.49775650	    -12.81511688	     15.05977497	      2.36659043	      8.24768279	      5.62845626	    -17.40909830	     10.63147932	     -0.12673230	      3.22170782	     -4.68587618	     -2.49669359	     -4.90285190	     -3.56277439	    -16.99624156	     13.92826042	     18.79764812	     86.51662706	      0.00000000	      0.00000000	      4.88437941	    -17.72336078	     25.08568225	     26.25074606	     86.51662706	      0.00000000	      0.00000000
      1.97000000	     -2.21358141	      3.42205241	      0.17150255	      0.29738879	      0.91830160	     -0.25546881	     29.07939059	     -2.16206355	     -3.54239161	    -45.54581683	     -2.21936070	    -12.92125347	     14.52089509	      0.82381262	      8.10747607	      5.91240454	    -16.53110477	     10.89541274	      0.18188171	      3.26769006	     -4.90192606	     -2.40319691	     -5.40622984	     -3.93673953	    -16.84617979	     13.58601940	     18.06541540	     86.51662706	      0.00000000	      0.00000000	      5.44246349	    -18.03644091	     24.66862281	     27.50509448	     86.51662706	      0.00000000	      0.00000000
      1.98000000	     -2.06532574	      3.38916982	      0.55118665	      0.31040237	      0.91781662	     -0.25549842	     29.14877259	     -2.28329750	     -4.18323251	    -41.87900682	     -1.94146165	    -12.67583509	     14.00980406	     -0.69265349	      7.96772157	      6.14223687	    -15.71346771	     11.14730023	      0.56341010	      3.34978732	     -5.12913493	     -2.34019580	     -5.88776491	     -4.29730286	    -16.68536937	     13.27823023	     17.33799692	     86.51662706	      0.00000000	      0.00000000	      5.98481015	    -18.34024824	     24.23317936	     28.74735809	     86.51662706	      0.00000000	      0.00000000
      1.99000000	     -1.91918406	      3.37179640	      0.93701144	      0.32349172	      0.91712689	     -0.25546388	     29.11127309	     -2.40653983	     -4.84031373	    -38.05116940	     -1.63810566	    -12.01065083	     13.53048645	     -2.16751598	      7.82234679	      6.32382646	    -14.96967967	     11.38045153	      1.00523240	      3.47106783	     -5.35302471	     -2.29992049	     -6.34961280	     -4.64678919	    -16.51595312	     13.00641911	     16.62378739	     86.51662706	      0.00000000	      0.00000000	      6.50271046	    -18.63069137	     23.77731531	     29.97268563	     86.51662706	      0.00000000	      0.00000000
      2.00000000	     -1.78360119	      3.36270746	      1.32641170	      0.33667023	      0.91625991	     -0.25535584	     28.98690129	     -2.52278121	     -5.52636719	    -34.12104113	     -1.29357140	    -10.89893968	     13.08364785	     -3.58801166	      7.66340718	      6.46741027	    -14.31094123	     11.59065207	      1.49134984	      3.63203608	     -5.55946530	     -2.27395130	     -6.79218020	     -4.98701591	    -16.34065296	     12.77097098	     15.93054802	     86.51662706	      0.00000000	      0.00000000	      6.98619865	    -18.90438466	     23.29748500	     31.17855458	     86.51662706	      0.00000000	      0.00000000
      2.01000000	     -1.66459818	      3.35503533	      1.71381133	      0.34996188	      0.91523677	     -0.25517520	     28.79966467	     -2.62214036	     -6.24968728	    -30.16670557	     -0.90132972	     -9.36082229	     12.66821189	     -4.94458517	      7.48318491	      6.58762844	    -13.74710472	     11.77553608	      2.00206001	      3.83089537	     -5.73690535	     -2.25452338	     -7.21419738	     -5.31820714	    -16.16272395	     12.57200803	     15.26490385	     86.51662706	      0.00000000	      0.00000000	      7.42508854	    -19.15863926	     22.78868693	     32.36480327	     86.51662706	      0.00000000	      0.00000000
      2.02000000	     -1.56502975	      3.34276823	      2.09200713	      0.36339171	      0.91405120	     -0.25492770	     28.57856934	     -2.69491604	     -7.01089863	    -26.28483964	     -0.46217627	     -7.46340146	     12.28311953	     -6.23096956	      7.27668314	      6.70234577	    -13.28772731	     11.93333221	      2.51460861	      4.06458485	     -5.87858417	     -2.23526955	     -7.61369394	     -5.63813209	    -15.98581261	     12.41000655	     14.63222876	     86.51662706	      0.00000000	      0.00000000	      7.80994928	    -19.39160288	     22.24497051	     33.53328453	     86.51662706	      0.00000000	      0.00000000
      2.03000000	     -1.48428822	      3.32156940	      2.45377939	      0.37697570	      0.91268674	     -0.25461006	     28.35633675	     -2.73324810	     -7.80097806	    -22.58749554	      0.01752723	     -5.31538152	     11.92890801	     -7.44328177	      7.04365565	      6.83037255	    -12.94280102	     12.06167610	      3.00521140	      4.33064067	     -5.98406313	     -2.21136983	     -7.98946499	     -5.94183299	    -15.81376779	     12.28612108	     14.03681532	     86.51662706	      0.00000000	      0.00000000	      8.13267267	    -19.60245685	     21.66036080	     34.68712664	     86.51662706	      0.00000000	      0.00000000
      2.04000000	     -1.41829859	      3.28975694	      2.79364067	      0.39071243	      0.91115417	     -0.25420669	     28.16555646	     -2.73304317	     -8.60061119	    -19.19574718	      0.52691957	     -3.05687234	     11.60860416	     -8.57877809	      6.78935086	      6.98838092	    -12.72309162	     12.15696493	      3.45244799	      4.62971966	     -6.05924820	     -2.17958547	     -8.34249677	     -6.22225255	    -15.65052714	     12.20220875	     13.48214560	     86.51662706	      0.00000000	      0.00000000	      8.38642766	    -19.79145599	     21.03005997	     35.82965038	     86.51662706	      0.00000000	      0.00000000
      2.05000000	     -1.36020535	      3.24907470	      3.10928176	      0.40457936	      0.90950168	     -0.25370944	     28.03314327	     -2.69548503	     -9.38110321	    -16.23014419	      1.05091819	     -0.84576277	     11.32766508	     -9.63541625	      6.52352190	      7.18745710	    -12.64009141	     12.21440595	      3.84153174	      4.96843062	     -6.11436334	     -2.13833017	     -8.67692365	     -6.47186547	    -15.50006266	     12.16057521	     12.97108988	     86.51662706	      0.00000000	      0.00000000	      8.56505212	    -19.95964448	     20.35170976	     36.96306686	     86.51662706	      0.00000000	      0.00000000
      2.06000000	     -1.30229310	      3.20425752	      3.40188602	      0.41854320	      0.90778621	     -0.25313741	     27.97461146	     -2.62787973	    -10.10709947	    -13.79901225	      1.56971927	      1.15758046	     11.09290412	    -10.61260035	      6.25770641	      7.42988460	    -12.70551905	     12.22852850	      4.16852230	      5.36195489	     -6.15997440	     -2.08756204	     -9.00014067	     -6.68503508	    -15.36629243	     12.16350406	     12.50594035	     86.51662706	      0.00000000	      0.00000000	      8.66219275	    -20.10824216	     19.62646628	     38.08714573	     86.51662706	      0.00000000	      0.00000000
